<svg width="25" height="15" viewBox="0 0 25 15" fill="none" xmlns="http://www.w3.org/2000/svg">
<path d="M21.5715 7V4H20.0715V7H17.0715V8.5H20.0715V11.5H21.5715V8.5H24.5715V7H21.5715Z" fill="white"/>
<path d="M8.07153 6V9H12.315C11.6955 10.746 10.0275 12 8.07153 12C5.59053 12 3.57153 9.981 3.57153 7.5C3.57153 5.019 5.59053 3 8.07153 3C9.14703 3 10.182 3.3855 10.986 4.086L12.957 1.824C11.607 0.648 9.87303 0 8.07153 0C3.93603 0 0.571533 3.3645 0.571533 7.5C0.571533 11.6355 3.93603 15 8.07153 15C12.207 15 15.5715 11.6355 15.5715 7.5V6H8.07153Z" fill="white"/>
</svg>
